# xmcd
#
# Track frame offsets:
# 150
# 19181
# 32960
# 45026
# 65426
# 83658
# 100326
# 112982
# 127649
# 141803
# 156830
# 175843
# 190134
# 204580
# 219023
# 231678
# 246432
# 263527
# 285009
#
# Disc length: 3999 seconds
#
#
# Revision: 0
# Processed by: cddbd v1.5.2PL0 Copyright (c) Steve Scherf et al.
# Submitted via: FreeRIP 2.951 
#
DISCID=f60f9d13
DTITLE=Cd do primeiro DVD BREGA do Brasil - Todo seu 
DYEAR=2006
DGENRE=Brega
TTITLE0=Garotinha linda
TTITLE1=Kelly
TTITLE2=No toca fitas do meu carro
TTITLE3=Lembrança do rei
TTITLE4=Porque voce não responde
TTITLE5=Seguindo voce
TTITLE6=Pra sonhar
TTITLE7=Ela acabou comigo
TTITLE8=Escalada
TTITLE9=Perdido em pensamento
TTITLE10=Num quarto de hotel
TTITLE11=Todo seu
TTITLE12=Doida desalmada e atrevida
TTITLE13=Voce é doida demais
TTITLE14=Na porta da cosinha
TTITLE15=A beleza da rosa
TTITLE16=Se ainda existe amor
TTITLE17=Sarah
TTITLE18=Minha paixão
EXTD=NELDVD:2007
EXTT0=
EXTT1=
EXTT2=
EXTT3=
EXTT4=
EXTT5=
EXTT6=
EXTT7=
EXTT8=
EXTT9=
EXTT10=
EXTT11=
EXTT12=
EXTT13=
EXTT14=
EXTT15=
EXTT16=
EXTT17=
EXTT18=
PLAYORDER=
